<svg version="1" xmlns="http://www.w3.org/2000/svg" width="2730.667" height="2730.667" viewBox="0 0 2048.000000 2048.000000"><path d="M974 .6c-2.5.2-12.1.8-21.5 1.4-243.8 15.7-477.7 122.3-653 297.5C132.7 466.3 29 683.8 5.1 917 .9 957.4.5 967.4.5 1024s.4 66.6 4.6 107c23.9 233.2 127.6 450.7 294.4 617.5C466.3 1915.3 683.8 2019 917 2042.9c40.4 4.2 50.4 4.6 107 4.6s66.6-.4 107-4.6c233.2-23.9 450.7-127.6 617.5-294.4 166.8-166.8 270.5-384.3 294.4-617.5 4.2-40.4 4.6-50.4 4.6-107s-.4-66.6-4.6-107c-23.9-233.2-127.6-450.7-294.4-617.5-164.5-164.4-377.8-267.4-608-293.4-40.1-4.6-54.4-5.3-109-5.6-29.1-.1-55-.1-57.5.1zm27.9 568.9c.8.8 1.4 2.6 1.3 4.2-.1 2.5-40.3 249.7-41.8 256.6-.3 1.5-1.5 3.2-2.6 3.8-3.8 2-6.4.2-11.4-7.8-42.2-68.4-95.3-127.1-157.4-174.2-19.4-14.7-24.9-18.4-25.5-16.9-2.5 7.4-3.3 43-1.5 66.4 3 38.4 7.7 124 6.9 125.6-2.2 4-9.4 3-10.3-1.5-.4-1.8-6.7-103.5-9.2-148.7-1-18.3 2.5-50 6.2-55.8 2.4-3.7 5.8-2.7 16.3 4.5 67 46.5 125 105.4 170.3 173.1 4.9 7.4 9.2 13.2 9.4 12.9.3-.2 9.4-54.8 20.3-121.2 16.8-102.5 20.1-121 21.6-122.1 2-1.5 5.1-1 7.4 1.1zm126.4 7c1.3 1.2 1.4 5.8 1 30.2-.6 30.8.8 83.7 3.2 120.3 1.6 24.6 5.2 65.1 6 68.9.8 3.1-2 7.1-4.8 7.1-1.3 0-3.3-1-4.4-2.3-1.8-1.9-2.4-5.1-4.2-23.7-5.1-52.9-7.1-96.4-7.1-154.5 0-37.4.2-43.3 1.6-45.3 1.8-2.6 6.5-3 8.7-.7zm104 1.7c1.2 1 2.5 6.2 4.6 19.3 9.5 58 14.8 127.7 12.3 161.2-1.2 16-.7 21.8 2 25 4.8 5.9 21.9 8.1 50.2 6.3 21.9-1.3 22.9-1.1 22.9 4.5 0 6-.1 6-36.6 6-24.8-.1-34.2-.4-37.2-1.4-4.6-1.5-9.2-5.4-10.8-9.1-.7-1.6-1.1-14.7-1.3-36.5-.3-54.8-4.5-105.8-12.9-155.6-1.4-8.1-2.5-15.2-2.5-15.7 0-1.6 4.1-5.2 6-5.2.9 0 2.4.6 3.3 1.2zm179 8.5c1.2 1.4 3.6 19.7 10.5 79.8 5 42.9 9.5 83.4 10.1 90 1.2 13.2 4.2 26.3 7.2 31.1 3.8 6.3 6.4 6.7 33.3 6.1 24.8-.6 33.9-1.6 56.9-6.3 12.4-2.6 12.8-2.6 14.8-.8 2.8 2.5 2.2 7.5-1.1 9.1-3.6 1.7-26 6-40.8 7.9-15.1 1.9-49.3 2.2-59.7.5-8.9-1.5-12.4-3.6-15.2-9.1-2-4-3.4-13.7-11.3-81.5-5-42.4-10.3-87.7-11.8-100.7-1.5-13.1-2.4-24.6-2-25.7 1-2.7 6.8-2.9 9.1-.4zm-925.7 9.9c2.1 3.1 2.5 2.1-11.9 28.4-20.3 37.4-40.8 69.9-68.5 108.9-28 39.5-43.6 59.2-62.3 78.5-16.8 17.4-23.7 21.6-31 18.6-4.4-1.9-6.6-5.3-9.5-14.9-1.5-4.7-5.9-18.5-9.9-30.6-4.1-12.1-10.3-31.9-13.8-44-10.6-35.8-26.7-102-26.7-109.4 0-5.8 7.8-8 10-2.8.6 1.2 3 11.6 5.6 23.2 9.6 43.6 21.9 88.1 35.9 130.3 8.4 25.1 10.8 31 12.9 32.5 3.4 2.3 13.3-4.6 22.1-15.4 3.3-4.1 10.7-13 16.5-20 42.8-51.2 80.4-107.3 113.5-168.9 4.3-8 8.2-15.1 8.8-15.8 1.7-2.2 6.5-1.4 8.3 1.4zM1686 608.7c17.7 5.8 40.3 28.1 61.3 60.3 3 4.7 10.8 17.7 17.2 29 16.3 28.5 20.8 36 28.8 47.7 5.3 7.7 6.7 10.6 6.2 12.3-.8 2.5-4.4 4.1-7.4 3.3-2.5-.7-15.5-19.7-25.7-37.8-3.7-6.6-10.3-18.3-14.7-26-20-35.5-34.6-53.5-55.7-69-10.2-7.4-13.6-8.9-17.1-7.4-3.4 1.4-7.2 7.3-8.9 13.9-.6 2.5-4.3 15.7-8.2 29.3-3.9 13.6-6.8 25-6.5 25.3.3.4 19.5-.5 42.6-2 23.2-1.4 42.8-2.3 43.6-2 3.9 1.5 2.6 9.9-1.7 10.8-1.3.3-18.9 1.4-39.3 2.6-20.3 1.1-39.8 2.3-43.2 2.6l-6.2.6-6 24.7c-3.3 13.5-7.6 32.2-9.6 41.6-3.6 17.2-4.7 19.5-8.7 19.5-2 0-5.8-3.4-5.8-5.1 0-2 7.1-34.2 12.1-54.8 6.2-25.6 14.2-55.4 21.3-78.6 2.9-9.9 6.4-21.6 7.6-26 4.5-16.8 9.2-19.7 24-14.8zm-1099.2 2.9c20.8 10.7 38.9 31.7 49.6 57.5 7.3 17.7 11.6 33.3 19.1 69.9 5.9 28.8 10.5 46.9 15 60 3.7 10.5 11.8 27.8 15.5 33 2.4 3.4 2.5 5.8.3 8.2-1.9 2.1-5.2 2.3-7.5.5-2.7-2.1-11.6-18.6-15.8-29.4-6.2-15.8-10.4-31.5-17-64-9.1-44.5-14-61.3-23-79.3-9.4-18.6-26.5-39.4-36.7-44.8-8.3-4.4-14.9 1.9-21.6 20.3-1.4 3.8-10.4 26.1-20.1 49.4-9.7 23.3-17.6 42.7-17.6 43.1 0 .4 5.5-.4 12.1-1.7 19.3-3.7 40.6-6.2 65.6-7.5 21.3-1.1 23.3-1 25.7.5 3.4 2.2 3.6 6.9.4 9.1-1.8 1.3-5.1 1.6-15.3 1.6-22.4 0-49.8 2.9-77.3 8.1-13.7 2.6-16.5 3.5-17.6 5.3-.7 1.1-8.7 20-17.7 42-17.7 43-18.5 44.4-23.8 41.5-1.4-.8-2.7-2.4-2.9-3.5-.2-1.2 17.7-45.5 39.6-98.5 21.9-53 41.1-99.9 42.5-104.3 6.8-20.2 13.9-24.5 28.5-17zm20.3 507c24.5 3.3 40.6 12.7 52 30.1 10.5 16.2 14.3 32.9 14.3 64.3 0 28.8-2.8 45.1-11 64.3-10.2 23.8-26.1 38.8-62.9 59.6-7.1 4-32.1 18.2-55.4 31.5l-42.3 24.1.5 5c.3 2.7 1.7 14.4 3.1 26 4.6 38 9.5 94.1 11.2 128.7.8 15.2.3 16.8-4.7 16.8-5.8 0-5.8.1-7.9-34.5-2.3-37.6-8.4-101.4-12.1-127.7-1.1-7.5-1.2-7.8-3.6-7.2-3.2.8-6.3-2-6.3-5.8 0-2.2.8-3.3 3.6-5 4.2-2.5 4.4 1.1-1.2-35.3-10.1-65.6-22.8-127.7-39.9-195.4-9.9-38.7-9.9-37.4.2-38.4 3.2-.4 27.2-1.1 53.3-1.7 26.1-.6 52.5-1.2 58.5-1.4 17.8-.4 39.2.4 50.6 2zm237.8 21.2c3.7 7.3 12.9 30 17.5 43.2 14 40.2 23.6 83.6 36.1 163 10.3 66.3 15.5 94.1 23.2 125.2 2.5 10.4 5 18.8 5.5 18.8 1.5 0 23.2-21.6 31.7-31.5 15.2-17.8 30.4-39.6 44.1-63.5 8.8-15.5 28.3-54.8 42.5-85.9l10.8-23.5-4.3-8.5c-15.1-30.8-39.6-69.6-63.5-100.6-6.3-8.2-11.5-15.5-11.5-16.1 0-2 4.1-6.4 6-6.4 2.1 0 8.5 7.6 23 27 17.2 23.2 36.7 53.9 49.5 78.4l6.7 12.7 12.2-24.3c14-27.8 24.2-45.9 36.2-63.8 12.6-18.8 16.9-24 20.1-24 2.9 0 6.3 2.5 6.3 4.7 0 .7-4.2 7.2-9.3 14.3-16.1 22.5-35.2 56.1-51.2 89.7l-7.7 16.3 7.3 16.2c20.4 45.9 37.9 102.8 45 146 .7 4.3 1.5 7.8 1.8 7.8.4 0 37-64.6 81.5-143.6 49.1-87.1 81.9-144.2 83.3-145.1 2.1-1.4 2.5-1.4 4.7.1 1.4.8 2.7 2.4 3.1 3.5.4 1.4-22.4 42.8-83.6 151.3-46.2 82.1-85.2 151-86.5 153-2.8 4.4-6.6 5.8-9.3 3.4-1.3-1.2-2.3-4.9-3.5-12.9-7.7-50.5-26.6-115-46.5-158l-3.6-8-5.9 12.9c-34.3 75.1-55 111.8-81.9 145.7-15.8 20-46 48.7-51 48.7-4.8 0-5.1-.8-11.2-24.6-8.1-31.5-14.4-65.3-25-133.4-15.5-100.4-28.1-149.6-51-199.5-4-8.7-3.8-11.7.7-13.4 3.1-1.2 5.4.2 7.7 4.7zm643.6 37.6c.7 2.8 3.5 13 6 22.6 16.5 61.7 39 125.3 66 186.4 9.9 22.3 31.5 66.4 42.3 86.3 4 7.2 7.2 14 7.2 15.1 0 2.3-3.5 5.2-6.2 5.2-2.6 0-5.6-4.6-18.1-28.5-43.8-83.5-79.6-175.8-103.8-267.4l-2.2-8.5-2.9 3.5c-4.8 5.7-18.1 25.7-24.8 37.3-8.5 14.8-25.3 49.4-39.9 82.1-6.6 14.8-16.2 36-21.4 47-5.2 11-9.4 20.1-9.3 20.2.1.1 33.6-3.2 74.4-7.3 58.5-6 74.6-7.3 75.8-6.4 3.3 2.8.9 9.4-3.9 10.5-1.2.2-35.9 3.8-77.1 7.9-41.2 4.2-75 7.7-75.1 7.8-.2.2-13.9 29.4-30.6 65-21.3 45.7-30.8 64.9-32.1 65.4-2.3.7-6.4-1.8-7.3-4.5-.4-1.3 13.2-31.3 43.6-96.3 24.3-51.9 50.9-109.2 59.1-127.3 26.8-59.2 42.2-86.5 64.1-113.7 3.8-4.8 7.7-8.9 8.6-9.1 3.5-.7 6.1 1.5 7.6 6.7z"/><path d="M509 1129.1c-21.7.4-44 1-49.5 1.4l-10.1.7 6.3 24.6c8.5 33.4 17.2 71.6 24.3 107.1 5.8 29.4 15.7 86.7 18.1 105.3.7 5.4 1.6 10.2 1.9 10.9 1.1 1.7 108.7-59.9 122.3-69.9 29.3-21.8 39.7-47.3 39.7-97.5 0-25.8-2.2-38.8-8.8-52.5-6.7-14-19.2-23.4-36.6-27.7-7.7-1.9-35.1-3.5-55.1-3.3-7.1.1-30.8.5-52.5.9z"/></svg>